{"title":"Dirty Politics 2015 Hindi Movies PDVDRip x264 New +Sample â˜»rDXâ˜»","uid":11739228,"size":740976509,"categoryP":"video","categoryS":"movies","magnet":"?xt=urn:btih:24fa075e2780b4e591155f436a3b1d42f3bf2d88&amp;dn=Dirty+Politics+2015+Hindi+Movies+PDVDRip+x264+New+%2BSample+%E2%98%BBrDX%E2%98%BB&amp;tr=udp%3A%2F%2Ftracker.openbittorrent.com%3A80&amp;tr=udp%3A%2F%2Fopen.demonii.com%3A1337&amp;tr=udp%3A%2F%2Ftracker.coppersurfer.tk%3A6969&amp;tr=udp%3A%2F%2Fexodus.desync.com%3A6969","seeders":7,"leechers":7,"uploader":"basicssom","files":2,"time":1425698507,"description":"----------------------------------------------------------------\nDirty Politics 2015 Hindi Movies PDVDRip x264 AAC New Source with Sample ~ â˜»rDXâ˜»\n\nSCREEN SHOTS &amp; POSTER:\n &lt;a href=&quot;\nhttp://planethost.co.nr/2015/3/DirtyPoliticspd/11.html&quot; rel=&quot;nofollow&quot; target=&quot;_NEW&quot;&gt;\nhttp://planethost.co.nr/2015/3/DirtyPoliticspd/11.html&lt;/a&gt; &lt;a href=&quot;\nhttp://planethost.co.nr/2015/3/DirtyPoliticspd/1.html&quot; rel=&quot;nofollow&quot; target=&quot;_NEW&quot;&gt;\nhttp://planethost.co.nr/2015/3/DirtyPoliticspd/1.html&lt;/a&gt; &lt;a href=&quot;\nhttp://planethost.co.nr/2015/3/DirtyPoliticspd/2.html&quot; rel=&quot;nofollow&quot; target=&quot;_NEW&quot;&gt;\nhttp://planethost.co.nr/2015/3/DirtyPoliticspd/2.html&lt;/a&gt; &lt;a href=&quot;\nhttp://planethost.co.nr/2015/3/DirtyPoliticspd/3.html&quot; rel=&quot;nofollow&quot; target=&quot;_NEW&quot;&gt;\nhttp://planethost.co.nr/2015/3/DirtyPoliticspd/3.html&lt;/a&gt; &lt;a href=&quot;\nhttp://planethost.co.nr/2015/3/DirtyPoliticspd/4.html&quot; rel=&quot;nofollow&quot; target=&quot;_NEW&quot;&gt;\nhttp://planethost.co.nr/2015/3/DirtyPoliticspd/4.html&lt;/a&gt; &lt;a href=&quot;\nhttp://planethost.co.nr/2015/3/DirtyPoliticspd/5.html&quot; rel=&quot;nofollow&quot; target=&quot;_NEW&quot;&gt;\nhttp://planethost.co.nr/2015/3/DirtyPoliticspd/5.html&lt;/a&gt; &lt;a href=&quot;\nhttp://planethost.co.nr/2015/3/DirtyPoliticspd/6.html&quot; rel=&quot;nofollow&quot; target=&quot;_NEW&quot;&gt;\nhttp://planethost.co.nr/2015/3/DirtyPoliticspd/6.html&lt;/a&gt; &lt;a href=&quot;\nhttp://planethost.co.nr/2015/3/DirtyPoliticspd/7.html&quot; rel=&quot;nofollow&quot; target=&quot;_NEW&quot;&gt;\nhttp://planethost.co.nr/2015/3/DirtyPoliticspd/7.html&lt;/a&gt; &lt;a href=&quot;\nhttp://planethost.co.nr/2015/3/DirtyPoliticspd/8.html&quot; rel=&quot;nofollow&quot; target=&quot;_NEW&quot;&gt;\nhttp://planethost.co.nr/2015/3/DirtyPoliticspd/8.html&lt;/a&gt; &lt;a href=&quot;\nhttp://planethost.co.nr/2015/3/DirtyPoliticspd/9.html&quot; rel=&quot;nofollow&quot; target=&quot;_NEW&quot;&gt;\nhttp://planethost.co.nr/2015/3/DirtyPoliticspd/9.html&lt;/a&gt; &lt;a href=&quot;\nhttp://planethost.co.nr/2015/3/DirtyPoliticspd/10.html&quot; rel=&quot;nofollow&quot; target=&quot;_NEW&quot;&gt;\nhttp://planethost.co.nr/2015/3/DirtyPoliticspd/10.html&lt;/a&gt;\n\nFormat                                   : Matroska\nFormat version                           : Version 4 / Version 2\nFile size                                : 700 MiB\nDuration                                 : 2h 10mn\nOverall bit rate                         : 748 Kbps\nMovie name                               : Dirty Politics 2015 Hindi Movies PDVDRip x264 AAC New Source ~ rDX ~\n\nVideo\nID                                       : 1\nFormat                                   : AVC\nFormat/Info                              : Advanced Video Codec\nFormat profile                           : &lt;a class=&quot;__cf_email__&quot; href=&quot;/cdn-cgi/l/email-protection&quot; data-cfemail=&quot;e7af8e808fa7abd5c9d6&quot;&gt;[email&amp;#160;protected]&lt;/a&gt;&lt;script cf-hash='f9e31' type=&quot;text/javascript&quot;&gt;\n/* &lt;![CDATA[ */!function(){try{var t=&quot;currentScript&quot;in document?document.currentScript:function(){for(var t=document.getElementsByTagName(&quot;script&quot;),e=t.length;e--;)if(t[e].getAttribute(&quot;cf-hash&quot;))return t[e]}();if(t&amp;&amp;t.previousSibling){var e,r,n,i,c=t.previousSibling,a=c.getAttribute(&quot;data-cfemail&quot;);if(a){for(e=&quot;&quot;,r=parseInt(a.substr(0,2),16),n=2;a.length-n;n+=2)i=parseInt(a.substr(n,2),16)^r,e+=String.fromCharCode(i);e=document.createTextNode(e),c.parentNode.replaceChild(e,c)}}}catch(u){}}();/* ]]&gt; */&lt;/script&gt;\nFormat settings, CABAC                   : Yes\nFormat settings, ReFrames                : 4 frames\nCodec ID                                 : V_MPEG4/ISO/AVC\nDuration                                 : 2h 10mn\nBit rate                                 : 665 Kbps\nWidth                                    : 640 pixels\nHeight                                   : 272 pixels\nDisplay aspect ratio                     : 2.35:1\nFrame rate mode                          : Constant\nFrame rate                               : 23.976 fps\nColor space                              : YUV\nChroma subsampling                       : 4:2:0\nBit depth                                : 8 bits\nScan type                                : Progressive\nBits/(Pixel*Frame)                       : 0.159\nStream size                              : 611 MiB (87%)\nTitle                                    : ~ rDX ~Mafiaking\nWriting library                          : x264\nLanguage                                 : Hindi\nDefault                                  : Yes\nForced                                   : No\n\nAudio\nID                                       : 2\nFormat                                   : MPEG Audio\nFormat version                           : Version 1\nFormat profile                           : Layer 3\nMode                                     : Joint stereo\nMode extension                           : MS Stereo\nCodec ID                                 : A_MPEG/L3\nCodec ID/Hint                            : MP3\nDuration                                 : 2h 10mn\nBit rate mode                            : Constant\nBit rate                                 : 80.0 Kbps\nChannel(s)                               : 2 channels\nSampling rate                            : 32.0 KHz\nCompression mode                         : Lossy\nStream size                              : 74.8 MiB (11%)\nTitle                                    : ~ rDX ~Mafiaking\nWriting library                          : LAME3.99r\nEncoding settings                        : -m j -V 4 -q 2 -lowpass 13.5 -b 80\nLanguage                                 : Hindi\nDefault                                  : Yes\nForced                                   : No","torrent":{"xt":"urn:btih:24fa075e2780b4e591155f436a3b1d42f3bf2d88","amp;dn":"Dirty+Politics+2015+Hindi+Movies+PDVDRip+x264+New+%2BSample+%E2%98%BBrDX%E2%98%BB","amp;tr":["udp%3A%2F%2Ftracker.openbittorrent.com%3A80","udp%3A%2F%2Fopen.demonii.com%3A1337","udp%3A%2F%2Ftracker.coppersurfer.tk%3A6969","udp%3A%2F%2Fexodus.desync.com%3A6969"],"infoHash":"24fa075e2780b4e591155f436a3b1d42f3bf2d88","infoHashBuffer":{"type":"Buffer","data":[36,250,7,94,39,128,180,229,145,21,95,67,106,59,29,66,243,191,45,136]},"announce":[],"urlList":[]}}